# xmcd CD database file
# Generated: Sat Nov 29 21:06:35 2003 by KSCD
# 
# Track frame offsets:
#       150
#       20123
#       32799
#       53011
#       67398
#       81564
#       99013
#       106868
#       131980
#       150368
#       161895
#       178961
#       195500
#       213495
#
# Disc length: 2966 seconds
#
# Revision: 1
# Processed by: cddbd v1.4PL0 Copyright (c) Steve Scherf et al.
# Submitted via: Kscd 1.3.3
#
DISCID=c80b940e
DTITLE=Catfish Keith - Rolling Sea
DYEAR=1900
DGENRE=
TTITLE0=Weep Like a Willow (Hey Pretty Mama)
TTITLE1=She's a Hum Dinger from Dingersville
TTITLE2=Racketeer's Blues
TTITLE3=Bye and Bye, I'm going to see the king
TTITLE4=Out on the Rollin' Sea
TTITLE5=Jealous Hearted, See
TTITLE6=My Little Girl (she Bust Her Drawers)
TTITLE7=Roll You In My Arms (Just like a Wagon Wheel)
TTITLE8=Mr. Crump Don't Like it
TTITLE9=Soul of a Man
TTITLE10=Monday Morning Blues
TTITLE11=Sign of Judgement
TTITLE12=Tell Everybody in Your Neighborhood
TTITLE13=
EXTD=
EXTT0=
EXTT1=
EXTT2=
EXTT3=
EXTT4=
EXTT5=
EXTT6=
EXTT7=
EXTT8=
EXTT9=
EXTT10=
EXTT11=
EXTT12=
EXTT13=
PLAYORDER=
